# xmcd
#
# Track frame offsets:
#	150
#	22624
#	41685
#	57492
#	78225
#	100831
#	118597
#	139288
#	163151
#	182346
#
# Disc length: 2693 seconds
#
# Revision: 1
# Processed by: cddbd v1.4PL0 Copyright (c) Steve Scherf et al.
# Submitted via: audiograbber 1.80
#
DISCID=790a830a
DTITLE=Dr. John - Afterglow
DYEAR=1900
DGENRE=
TTITLE0=I Know What I've Got
TTITLE1=Gee Baby Ain't I Good To You
TTITLE2=I'm Just A Luck So-and-So
TTITLE3=Blue Skies
TTITLE4=So Long
TTITLE5=New York City Blues
TTITLE6=Tell Me You'll Wait For Me
TTITLE7=There Must Be A Better World Somewhere
TTITLE8=I Still Think About You
TTITLE9=I'm Confessin' (That I Love You)
EXTD=
EXTT0=
EXTT1=
EXTT2=
EXTT3=
EXTT4=
EXTT5=
EXTT6=
EXTT7=
EXTT8=
EXTT9=
PLAYORDER=
